<?xml version="1.0" encoding="UTF-8"?>
<svg id="_레이어_1" xmlns="http://www.w3.org/2000/svg" version="1.1" viewBox="0 0 1000 400">
  <!-- Generator: Adobe Illustrator 29.7.0, SVG Export Plug-In . SVG Version: 2.1.1 Build 138)  -->
  <path d="M107.96,173.78c-2.08-1.3-3.64,1.56-4.94,2.6-2.21,1.82-10.01,3.38-12.87,3.77-5.2.91-10.79-.13-15.08-3.38-4.94-3.64-6.5-9.75-7.67-15.6-.39-1.69-2.73-18.59-1.82-19.37v.78c.13.65.13.78.13-.39v-.52c-.78-8.19.26-16.38.52-24.44,0-3.38-2.86-11.57,1.69-13.52,3.12-1.17,7.02,2.08,9.75,3.25,3.12,1.56,6.24,3.12,8.84,5.46,6.89,5.85,5.85,13.13,5.46,21.32-.52,7.93-.13,16.12.65,24.18.26,2.34,1.04,4.81,1.56,7.15.39,1.17,4.55,5.98,8.97,2.34,1.69-1.43-.39-4.42-1.04-6.37-1.04-3.9-1.04-7.93-.65-11.96.13-2.47,1.82-20.02,6.63-19.37,6.11.91,12.48-.13,12.87,8.19.13,3.12-.78,5.98-1.69,8.84-.91,3.12-4.29,8.19-3.64,11.44.65,3.51,6.11,5.98,8.58,8.19,2.08,1.56,4.55-1.43,5.72-2.86,4.94-5.98,9.75-13.13,10.27-21.19.39-7.41-1.56-13.65-3.25-20.8-.52-2.34-7.28-16.64.91-14.95,5.59,1.17,5.98,8.58,7.54,12.74,3.12,8.71,3.77,15.99,2.34,25.35-.65,4.81-2.6,11.83-5.33,15.99-3.12,4.55-4.16,10.01-7.8,14.43-3.12,3.9-10.01,6.37-14.95,6.11-6.37-.39-7.15-4.55-11.7-7.41ZM65.71,143.49v-1.82c-.26-2.47-.26-1.17-.13.13v.78c0,.39.13.91.13.91ZM112.25,149.08v.26h.13c.52-.13.65-.26.65-.52,1.69-1.95,2.34-8.84.65-9.62-1.17-.52-1.56,7.02-1.43,9.49l-.13-.13c0,.13,0,.39.13.52ZM112.38,149.34c.26-.13.39-.26.65-.52,0-.39-.65-.65-.78-.13v.65h.13Z"/>
  <path d="M161.13,179.24c-5.85-4.16-8.71-7.93-9.75-15.34-1.56-12.48,4.81-30.81,14.56-38.87,4.81-3.9,12.09-5.72,18.07-6.63,6.63-1.17,8.06,5.33,8.06,11.18v.78c.13,5.85,2.6,9.36.39,15.34-2.47,6.5-5.85,10.53-12.35,12.87-3.38,1.3-8.19,3.12-6.11,8.84,1.56,3.9-2.86,11.18,4.42,12.74,10.01,2.21,20.93-11.05,26.52-17.55.52-.52,9.49-14.43,10.27-10.27.78,4.42-5.33,14.04-8.84,16.51-4.29,2.99-7.15,7.41-11.83,10.4-4.94,2.99-9.62,4.03-15.21,5.33-4.68,1.04-14.3-2.6-18.2-5.33ZM187.91,136.59c.13-4.81-9.36,5.2-9.49,5.2-1.3,1.69-5.46,13-4.29,13.65,5.07,2.21,13.78-15.73,13.78-18.85Z"/>
  <path d="M295.03,175.34c-1.17-1.43-5.59-12.48-5.33-12.48-.26-.13-6.11,6.89-6.89,7.8-4.68,3.64-11.44,5.85-17.42,3.9-7.28-2.34-17.03-11.57-14.95-20.28,1.95-7.93,4.16-16.9,11.7-23.66,4.16-3.64,10.92-5.07,15.08-6.37,6.5-2.08,8.06,2.08,14.43,5.33,2.21.91,5.85,6.37,7.28,2.99,1.04-2.99-.91-3.51.91-5.59.91-1.3,5.98.13,6.63.65,1.56,1.17,10.14,6.76,9.75,7.67-.65,1.17,2.08,5.98,2.21,7.54.13,2.99-.91,5.72-.65,8.58,0,2.21-3.38,21.97-.39,20.15,4.81-2.6,8.84-7.28,12.09-11.44.78-1.04,2.6-5.33,4.68-8.71,2.21-8.19,1.69-21.84,2.99-29.12-.26-.13-.52-.13-.78-.26-1.43-.52-2.34-1.04-2.86-1.56-.52,0-1.04,0-1.43.13-3.64,1.17-5.46-5.07-5.2-7.8,0-1.43,0,.52,0,0,0-1.95,2.86-10.92,8.71-10.01,7.28,1.3,5.46,4.03,6.89,11.18.26,1.3.52,2.6.26,3.77,6.37,1.43,17.03,5.59,21.84,6.11,3.77,2.08,4.94,2.73,7.02,6.5,3.51,6.11,2.6,10.53,3.38,16.9.13,1.82-1.04,23.53,5.98,20.02,9.36-4.68,9.88-14.3,14.04-22.75.26-.39,4.16-1.82,3.9-.26-.39,2.47-.26,5.72-1.3,8.06-1.56,4.03-3.64,7.8-5.85,11.44-4.16,7.15-12.09,15.73-21.32,15.47,2.99.13-2.08,0-.26,0-10.27-.13-15.99-8.97-17.94-17.94-2.08-9.49.26-11.7.52-20.93.13-4.03,5.46-13.26,2.73-13.26-3.9,0-8.71-1.56-13-2.99-.13,4.42-.52,10.01-.65,11.7,0,4.29-1.04,8.84-1.82,13v.26c.13,1.04-.26,2.34-.91,4.03-.39,1.69-.78,3.38-1.43,5.07-1.3,2.34-2.6,3.25-3.51,3.38-6.5,9.1-17.55,19.37-25.87,20.02h-.52c-4.68-.13-9.62-2.6-12.74-6.24ZM285.93,160c.91-1.56,1.82-2.99,2.34-4.81.91-2.34,3.12-3.51,4.03-5.72,2.47-5.85,1.04-13.52-7.67-11.57h-.13c-4.29-3.51-8.84,6.89-9.49,9.1-1.43,4.03-13,25.61-.26,21.32,5.46-1.95,7.15-4.29,11.18-8.32Z"/>
  <path d="M399.81,179.24c-5.85-4.16-8.71-7.93-9.75-15.34-1.56-12.48,4.81-30.81,14.56-38.87,4.81-3.9,12.09-5.72,18.07-6.63,6.63-1.17,8.06,5.33,8.06,11.18v.78c.13,5.85,2.6,9.36.39,15.34-2.47,6.5-5.85,10.53-12.35,12.87-3.38,1.3-8.19,3.12-6.11,8.84,1.56,3.9-2.86,11.18,4.42,12.74,10.01,2.21,20.93-11.05,26.52-17.55.52-.52,9.49-14.43,10.27-10.27.78,4.42-5.33,14.04-8.84,16.51-4.29,2.99-7.15,7.41-11.83,10.4-4.94,2.99-9.62,4.03-15.21,5.33-4.68,1.04-14.3-2.6-18.2-5.33ZM426.59,136.59c.13-4.81-9.36,5.2-9.49,5.2-1.3,1.69-5.46,13-4.29,13.65,5.07,2.21,13.78-15.73,13.78-18.85Z"/>
  <path d="M500.94,223.7c-4.81-7.54-.26-16.51,4.03-23.14,3.9-6.24,8.84-13.39,15.99-16.25,1.95-.78,2.86-19.37,2.47-19.5.39.13-6.37,4.16-6.63,4.42-1.82,1.17-5.72,2.08-7.93,2.34-6.76.65-13.39-3.25-16.38-9.23-6.76-13.52.26-36.92,12.74-45.11,8.97-5.98,24.31,1.95,26,12.61.13,1.17.39,7.02-2.6,5.85-1.69-.65-2.08-6.11-3.25-7.67-1.3-1.69-4.03-4.03-6.37-3.9-.65,0-3.12,8.06-3.25,9.1-1.3,6.63-2.86,14.95-2.34,21.58.26,2.34.13,6.76,1.95,8.45,2.6,2.08,5.59-3.38,6.37-5.33,1.04-2.73,2.73-6.11,3.12-9.1.26-2.21-2.99-5.72-.52-7.15,4.29-2.73,13.26,1.17,15.21,5.33,6.5,13.65,5.98,30.42,4.68,45.11-.78,7.93-1.82,15.08-5.72,22.1-2.6,4.81-6.37,8.84-9.49,13.39-1.82,1.43-5.59,3.77-6.37,4.55-2.86,2.47-9.75-1.04-13.78-2.34-3.38-1.3-5.98-2.99-7.93-6.11ZM512.51,224.22c6.24,1.69,5.72-4.29,6.76-8.84.78-3.9.39-8.32.91-12.22.13-1.69,2.21-9.23.91-10.4-1.95-2.08-12.87,19.11-13.78,23.53v.39c.26,3.64,1.17,6.5,5.2,7.54Z"/>
  <path d="M564.12,179.24c-5.85-4.16-8.71-7.93-9.75-15.34-1.56-12.48,4.81-30.81,14.56-38.87,4.81-3.9,12.09-5.72,18.07-6.63,6.63-1.17,8.06,5.33,8.06,11.18v.78c.13,5.85,2.6,9.36.39,15.34-2.47,6.5-5.85,10.53-12.35,12.87-3.38,1.3-8.19,3.12-6.11,8.84,1.56,3.9-2.86,11.18,4.42,12.74,10.01,2.21,20.93-11.05,26.52-17.55.52-.52,9.49-14.43,10.27-10.27.78,4.42-5.33,14.04-8.84,16.51-4.29,2.99-7.15,7.41-11.83,10.4-4.94,2.99-9.62,4.03-15.21,5.33-4.68,1.04-14.3-2.6-18.2-5.33ZM590.9,136.59c.13-4.81-9.36,5.2-9.49,5.2-1.3,1.69-5.46,13-4.29,13.65,5.07,2.21,13.78-15.73,13.78-18.85Z"/>
  <path d="M624.18,180.41c-4.81-6.24-5.2-11.96-5.33-19.5,0-4.29,2.86-36.01.91-36.01-3.77-.13-13.78-1.43-13.26-7.67.91-7.67,11.05.13,14.95-4.03,1.56-1.69.91-9.1,1.17-11.57.39-4.16,1.04-8.45,1.43-12.74.13-2.47-1.69-6.76.26-8.71,2.47-2.6,6.11-1.3,8.84-.13,5.46,2.21,9.75,6.37,14.95,8.71,1.04.39,1.17,8.06,1.3,8.97.52,3.38.65,8.06-.13,11.31-1.17,4.68,13.52,2.47,16.25,2.6,1.56,0,3.12.13,4.68.26,4.42-2.47,4.81-15.21,6.5-19.89.78-2.34,4.03-7.8,3.38-10.27-1.3-4.81,7.41,1.69,8.19,2.47,3.77,3.51,10.14,10.79,8.71,16.64-1.56,5.85-1.17,7.15,5.59,7.15,2.6.13,6.63.78,8.19,3.25,1.69,2.99-1.56,3.51-2.86,4.94-2.21,2.47-8.45-1.17-10.53,2.08-1.04,1.43.26,4.81.26,6.37.39,7.8-1.04,20.67.65,28.6.91,4.03,2.47,7.8,2.99,11.96.52,3.64.65,6.76,5.33,7.15,7.8.78,8.71-10.01,11.05-15.21,1.69-3.77,1.3-8.06,2.99-11.83.13-.39,4.29,1.17,3.9,4.03-.65,3.9-3.25,7.8-3.38,11.57-.39,7.28-8.58,15.21-14.43,18.33-16.51,8.71-31.33-10.27-34.32-24.44-1.3-5.98-.78-18.33-.78-24.44,0-1.69,0,1.69,0,0,0-.91.39-7.8-1.17-9.23-1.82.52-3.51.78-4.29.52-1.17,0-2.34-.13-3.38-.39-4.94-.13-13.91,0-14.04,1.43-.39,2.73,0,5.72-.26,8.45-.52,7.02.26,10.92-.78,17.81-.78,4.68,2.08,16.12-1.3,19.89-1.43,1.56-3.51,3.77-3.9,5.98-.39,1.56-1.3,2.73-1.43,4.29-.26,1.69-1.82.91-2.34,2.21-2.21,6.63-11.7,2.99-14.56-.91Z"/>
  <path d="M719.47,134.38c.13-4.68,1.56-10.79,3.38-15.08,1.43-3.51,7.02-2.34,8.45-1.43,3.77,2.08,6.89,0,8.97,3.77,3.51,6.11.65,19.24,1.43,25.61.13,1.82-.78,24.05,5.98,20.02,8.58-5.2,10.66-14.82,15.6-22.75.26-.39,6.24-1.82,5.85-.26-.65,2.47-4.03,5.2-5.07,7.54-1.56,4.03-4.16,7.8-6.37,11.44-4.16,7.15-11.31,16.25-20.54,15.99h-.39c-10.14-.13-15.86-8.97-17.81-17.94-2.08-9.49.26-17.68.52-26.91ZM729.74,107.08c-5.33,1.56-7.93-7.28-7.67-11.44,0-1.95,0,.91,0,0,0-2.73-5.59-17.03,2.86-15.6,10.53,1.82,17.81,7.02,19.89,17.29.78,3.51.91,6.5-1.04,9.49.52-.52-7.41,1.82-6.37,2.6-1.95-1.43-5.46-3.12-7.67-2.34ZM737.15,179.24h-.39c-1.82,0,3.38.13.39,0Z"/>
  <path d="M808.39,167.41c-1.69-6.5-1.82-13.26-1.69-20.15,0-1.69,1.56-19.89-3.51-15.34-4.29,4.03-7.93,7.67-10.66,12.87-2.86,5.59-8.19,12.74-9.23,19.11-1.56,10.66-19.63,17.55-22.88,4.42-3.77-15.08.91-31.46.78-46.8-.13-3.12-.52-6.11-.78-9.23-.39-3.51.13-2.6,2.08-5.33,2.34-3.25,14.17,2.86,16.51,4.16,11.7,6.63,6.63,22.23,6.63,33.02,1.69-.78,3.25-5.07,4.29-6.5,1.82-2.73,4.03-5.46,6.24-7.8,4.42-4.55,8.06-8.97,14.69-9.23,11.83-.26,20.41,9.88,20.02,21.32-.13,4.81-.26,9.49-.52,14.3-.26,4.29.26,14.43,5.59,16.25,10.01,3.51,15.73-27.82,23.14-27.82,3.77,0-10.27,29.25-19.76,35.23-13.78,8.71-27.17,1.82-30.94-12.48Z"/>
  <path d="M864.68,223.7c-4.81-7.54-.26-16.51,4.03-23.14,3.9-6.24,8.84-13.39,15.99-16.25,1.95-.78,2.86-19.37,2.47-19.5.39.13-6.37,4.16-6.63,4.42-1.82,1.17-5.72,2.08-7.93,2.34-6.76.65-13.39-3.25-16.38-9.23-6.76-13.52.26-36.92,12.74-45.11,8.97-5.98,24.31,1.95,26,12.61.13,1.17.39,7.02-2.6,5.85-1.69-.65-2.08-6.11-3.25-7.67-1.3-1.69-4.03-4.03-6.37-3.9-.65,0-3.12,8.06-3.25,9.1-1.3,6.63-2.86,14.95-2.34,21.58.26,2.34.13,6.76,1.95,8.45,2.6,2.08,5.59-3.38,6.37-5.33,1.04-2.73,2.73-6.11,3.12-9.1.26-2.21-2.99-5.72-.52-7.15,4.29-2.73,13.26,1.17,15.21,5.33,6.5,13.65,5.98,30.42,4.68,45.11-.78,7.93-1.82,15.08-5.72,22.1-2.6,4.81-6.37,8.84-9.49,13.39-1.82,1.43-5.59,3.77-6.37,4.55-2.86,2.47-9.75-1.04-13.78-2.34-3.38-1.3-5.98-2.99-7.93-6.11ZM876.25,224.22c6.24,1.69,5.72-4.29,6.76-8.84.78-3.9.39-8.32.91-12.22.13-1.69,2.21-9.23.91-10.4-1.95-2.08-12.87,19.11-13.78,23.53v.39c.26,3.64,1.17,6.5,5.2,7.54Z"/>
  <path d="M346.77,333.94c-2.08-5.2-.65-13.65.13-18.98.52-3.51,3.64-18.46-3.25-14.95-5.98,2.99-11.7,9.23-15.34,14.69-2.73,4.16-2.21,9.23-7.67,10.92-3.25,1.04-10.27,0-13.52-1.04-7.8-2.6-5.07-14.3-5.59-20.67,0-.26,0-6.5-1.04-5.72-2.34,1.82-4.68,4.16-6.5,6.63-4.29,6.11-9.23,13.13-8.58,20.93,0,1.56-.39,4.94-1.82,5.98-.65.52-1.04,1.3-1.3,2.08-.26.78-2.73-.13-3.77,1.04-1.04,1.43-2.99,2.6-4.55,1.82-2.08-1.17-7.54,2.08-10.79.78-11.83-4.81-5.46-33.28-3.77-42.38.65-4.03.91-8.19,1.82-12.22.26-1.56-.65-5.33-.13-6.5,3.25-6.5,9.62-2.99,14.69-1.17,2.73,1.04,4.94,2.86,7.28,4.42,1.04.65,1.69,4.03,2.6,4.16,1.95.13,2.73,18.07,1.69,18.59,1.82-.91,3.38-4.03,4.68-5.46,2.34-2.6,4.81-5.07,7.41-7.28,3.25-2.73,9.23-8.32,13.91-5.98,4.42,2.08,9.23,4.81,11.57,9.36.78,1.56,1.43,11.96,2.47,12.22,1.56.39,10.4-9.49,11.96-10.66,4.94-4.03,10.14-7.02,16.77-7.02,11.44,0,17.42,13.52,17.03,23.14-.13,4.55-.39,9.1-.52,13.65-.13,2.08-1.43,5.59.39,7.02,2.6,1.95,5.46,1.04,8.06-.52,5.07-3.12,8.84-8.19,11.18-13.78,1.17-2.6,2.21-5.2,3.51-7.8,5.59-11.18,6.76-6.24,6.76-6.11-.39,2.47-2.34,5.2-3.25,7.41-1.56,3.77-2.73,7.67-4.68,11.18-3.64,6.89-8.84,12.22-14.43,17.42-6.11,5.46-13,8.58-21.19,6.63-5.46-1.17-11.18-6.37-12.22-11.83Z"/>
  <path d="M439.85,331.34c-1.17-1.43-5.59-12.48-5.33-12.48-.26-.13-6.11,6.89-6.89,7.8-4.68,3.64-11.44,5.85-17.42,3.9-7.28-2.34-17.03-11.57-14.95-20.28,1.95-7.93,4.16-16.9,11.7-23.66,4.16-3.64,10.92-5.07,15.08-6.37,6.5-2.08,8.06,2.08,14.43,5.33,2.21.91,5.85,6.37,7.28,2.99,1.04-2.99-.91-3.51.91-5.59.91-1.3,5.98.13,6.63.65,1.56,1.17,10.14,6.76,9.75,7.67-.65,1.17,2.08,5.98,2.21,7.54.13,2.99-.91,5.72-.65,8.58,0,2.21-3.38,21.97-.39,20.15,4.81-2.6,8.84-7.28,12.09-11.44.78-1.04,2.6-5.33,4.68-8.71,2.21-8.19,1.69-21.84,2.99-29.12-.26-.13-.52-.13-.78-.26-1.43-.52-2.34-1.04-2.86-1.56-.52,0-1.04,0-1.43.13-3.64,1.17-5.46-5.07-5.2-7.8,0-1.43,0,.52,0,0,0-1.95,2.86-10.92,8.71-10.01,7.28,1.3,5.46,4.03,6.89,11.18.26,1.3.52,2.6.26,3.77,6.37,1.43,17.03,5.59,21.84,6.11,3.77,2.08,4.94,2.73,7.02,6.5,3.51,6.11,2.6,10.53,3.38,16.9.13,1.82-1.04,23.53,5.98,20.02,9.36-4.68,9.88-14.3,14.04-22.75.26-.39,4.16-1.82,3.9-.26-.39,2.47-.26,5.72-1.3,8.06-1.56,4.03-3.64,7.8-5.85,11.44-4.16,7.15-12.09,15.73-21.32,15.47,2.99.13-2.08,0-.26,0-10.27-.13-15.99-8.97-17.94-17.94-2.08-9.49.26-11.7.52-20.93.13-4.03,5.46-13.26,2.73-13.26-3.9,0-8.71-1.56-13-2.99-.13,4.42-.52,10.01-.65,11.7,0,4.29-1.04,8.84-1.82,13v.26c.13,1.04-.26,2.34-.91,4.03-.39,1.69-.78,3.38-1.43,5.07-1.3,2.34-2.6,3.25-3.51,3.38-6.5,9.1-17.55,19.37-25.87,20.02h-.52c-4.68-.13-9.62-2.6-12.74-6.24ZM430.75,316c.91-1.56,1.82-2.99,2.34-4.81.91-2.34,3.12-3.51,4.03-5.72,2.47-5.85,1.04-13.52-7.67-11.57h-.13c-4.29-3.51-8.84,6.89-9.49,9.1-1.43,4.03-13,25.61-.26,21.32,5.46-1.95,7.15-4.29,11.18-8.32Z"/>
  <path d="M534.49,309.76c-.65-16.38,3.9-31.33,5.72-47.19.52-3.9,10.79,5.59,11.57,6.37,2.21,2.21,7.02,7.54,6.11,11.18-.13.39-.78,8.06-.65,8.06,3.51.39,9.62-14.17,15.08-15.34,8.32-1.82,16.77,8.97,14.82,16.77-1.3,5.33-4.29,16.25-11.57,14.43-3.38-.91-4.55-6.37-6.5-8.71-1.82-2.08,2.47-9.88,1.04-10.53-2.86-1.17-10.79,12.35-11.83,14.69-3.77,8.71-.39,18.46,1.56,27.82,1.17,6.37-7.54,7.41-11.44,6.63-10.92-2.34-14.43-9.1-13.91-24.18Z"/>
  <path d="M594.28,290.38c.13-4.68,1.56-10.79,3.38-15.08,1.43-3.51,7.02-2.34,8.45-1.43,3.77,2.08,6.89,0,8.97,3.77,3.51,6.11.65,19.24,1.43,25.61.13,1.82-.78,24.05,5.98,20.02,8.58-5.2,10.66-14.82,15.6-22.75.26-.39,6.24-1.82,5.85-.26-.65,2.47-4.03,5.2-5.07,7.54-1.56,4.03-4.16,7.8-6.37,11.44-4.16,7.15-11.31,16.25-20.54,15.99h-.39c-10.14-.13-15.86-8.97-17.81-17.94-2.08-9.49.26-17.68.52-26.91ZM604.55,263.08c-5.33,1.56-7.93-7.28-7.67-11.44,0-1.95,0,.91,0,0,0-2.73-5.59-17.03,2.86-15.6,10.53,1.82,17.81,7.02,19.89,17.29.78,3.51.91,6.5-1.04,9.49.52-.52-7.41,1.82-6.37,2.6-1.95-1.43-5.46-3.12-7.67-2.34ZM611.96,335.24h-.39c-1.82,0,3.38.13.39,0Z"/>
  <path d="M644.85,335.24c-5.85-4.16-8.71-7.93-9.75-15.34-1.56-12.48,4.81-30.81,14.56-38.87,4.81-3.9,12.09-5.72,18.07-6.63,6.63-1.17,8.06,5.33,8.06,11.18v.78c.13,5.85,2.6,9.36.39,15.34-2.47,6.5-5.85,10.53-12.35,12.87-3.38,1.3-8.19,3.12-6.11,8.84,1.56,3.9-2.86,11.18,4.42,12.74,10.01,2.21,20.93-11.05,26.52-17.55.52-.52,9.49-14.43,10.27-10.27.78,4.42-5.33,14.04-8.84,16.51-4.29,2.99-7.15,7.41-11.83,10.4-4.94,2.99-9.62,4.03-15.21,5.33-4.68,1.04-14.3-2.6-18.2-5.33ZM671.63,292.59c.13-4.81-9.36,5.2-9.49,5.2-1.3,1.69-5.46,13-4.29,13.65,5.07,2.21,13.78-15.73,13.78-18.85Z"/>
  <path d="M698.28,315.74c-1.95-10.4-.91-27.17,5.85-35.75,2.47-3.25,7.54-8.45,11.96-8.45,4.16-.13,10.27,4.68,13.78,6.76l2.86.52-.26-3.77c.39-5.2,1.43-10.27,2.08-15.47.91-5.85,1.82-11.57,2.6-17.42.26-2.6-.91-9.75,0-11.96,1.04-2.34,5.85-2.21,7.8-1.04,3.51,2.21,6.37,6.5,8.06,10.14,3.51,7.28,2.6,15.47,2.6,23.4s-.52,16.25.13,23.66c.78,9.49.91,15.6.26,22.62-.26,3.77-.13,7.67-.39,11.44-.78,7.93,7.54-2.21,8.19-3.64,1.82-3.38,3.25-7.15,5.33-10.14,2.08-3.12,1.56-10.14,3.77-12.22,8.71-7.8,1.3,14.69,0,17.55-3.64,7.8-10.27,16.9-19.5,18.07-10.27,1.43-14.82-9.36-18.2-17.55l-.13-2.47v.52c-.39-.13-5.07,12.22-5.72,13.39-2.08,3.77-4.68,6.76-9.1,7.41-4.68.78-7.67,2.08-12.61.13-5.72-2.34-8.32-10.27-9.36-15.73ZM722.72,325.23c2.6.65,5.59-7.15,5.98-8.71,2.34-9.1,3.38-17.68,2.34-26.91-.78-2.6-2.21-8.97-6.11-8.45-4.03.65-2.86,5.59-2.99,8.06-.26,8.32-1.17,17.03-1.04,25.48-.13,2.08-1.04,9.88,1.82,10.53Z"/>
</svg>